<?xml version="1.0" standalone="no"?>
<!DOCTYPE svg PUBLIC "-//W3C//DTD SVG 20010904//EN"
 "http://www.w3.org/TR/2001/REC-SVG-20010904/DTD/svg10.dtd">
<svg version="1.0" xmlns="http://www.w3.org/2000/svg"
 width="300.000000pt" height="300.000000pt" viewBox="0 0 300.000000 300.000000"
 preserveAspectRatio="xMidYMid meet">
<metadata>
Created by potrace 1.14, written by Peter Selinger 2001-2017
</metadata>
<g transform="translate(0.000000,300.000000) scale(0.100000,-0.100000)"
fill="#000000" stroke="none">
<path d="M1238 2685 c-2 -2 -21 -6 -43 -9 -100 -13 -215 -47 -305 -89 -36 -16
-68 -31 -72 -31 -3 -1 -49 -29 -101 -63 -163 -107 -305 -263 -398 -437 -39
-73 -104 -236 -94 -236 2 0 0 -11 -5 -26 -10 -25 -14 -44 -30 -139 -9 -54 -6
-304 5 -345 6 -25 8 -35 20 -100 18 -91 96 -264 171 -377 57 -86 255 -293 280
-293 4 0 17 -8 28 -19 18 -16 85 -55 166 -96 148 -76 334 -115 530 -110 154 4
170 6 335 49 47 13 215 88 252 113 19 13 38 23 43 23 6 0 10 5 10 10 0 6 5 10
11 10 6 0 16 6 24 12 7 7 27 24 44 36 17 13 49 41 72 63 l41 39 299 0 299 0 0
830 0 830 -295 0 c-172 0 -295 -4 -295 -9 0 -5 4 -11 8 -13 12 -5 99 -113 129
-162 125 -197 182 -383 188 -611 3 -128 -3 -192 -29 -314 -6 -27 -24 -88 -33
-111 -4 -8 -7 -18 -8 -22 -2 -5 -4 -10 -5 -13 -1 -3 -3 -9 -4 -14 -2 -18 -102
-203 -118 -221 -10 -11 -18 -22 -18 -26 0 -8 -48 -65 -93 -112 l-31 -32 -528
0 -528 0 0 830 0 830 533 0 532 0 -50 45 c-67 60 -66 59 -137 109 -82 57 -275
148 -343 162 -11 2 -60 12 -110 22 -77 16 -335 28 -347 17z"/>
</g>
</svg>
